<svg xmlns="http://www.w3.org/2000/svg" viewBox="0 0 28.44 28.44"><defs><style>.cls-1{fill:#707070;}.cls-2{fill:none;stroke:#fff;stroke-linecap:round;stroke-linejoin:round;}</style></defs><g id="Layer_2" data-name="Layer 2"><g id="Layer_1-2" data-name="Layer 1"><rect class="cls-1" width="28.44" height="28.44" rx="4.62"/><path class="cls-2" d="M17.62,17.62H19a1.36,1.36,0,0,0,1.36-1.36V13.54A1.35,1.35,0,0,0,19,12.19H9.47a1.35,1.35,0,0,0-1.36,1.35v2.72a1.36,1.36,0,0,0,1.36,1.36h1.36"/><path class="cls-2" d="M17.62,12.19V9.47a1.36,1.36,0,0,0-1.36-1.36H12.19a1.36,1.36,0,0,0-1.36,1.36v2.72"/><rect class="cls-2" x="10.83" y="14.9" width="6.79" height="5.43" rx="1.36"/></g></g></svg>